<?xml version="1.0" encoding="UTF-8"?> <!-- Generator: Adobe Illustrator 15.1.0, SVG Export Plug-In . SVG Version: 6.00 Build 0) --> <svg xmlns="http://www.w3.org/2000/svg" xmlns:xlink="http://www.w3.org/1999/xlink" version="1.1" x="0px" y="0px" width="746.619px" height="182.917px" viewBox="0 0 746.619 182.917" xml:space="preserve"> <g id="Layer_5_copy"> <g> <ellipse fill="#005A7A" cx="88.144" cy="91.529" rx="88.107" ry="90.746"></ellipse> </g> <g> <path fill="#52632D" d="M86.151,115.862c0-8.27,101.669-27.683,41.785-27.683c-38.08,0-122.546-27.643-122.553-27.621 c-3.315,9.497-5.285,20.192-5.285,31.03c0,50.117,39.445,90.748,88.108,90.748c23.171,0,44.254-9.214,59.983-24.278 C165.488,141.486,86.151,142.113,86.151,115.862z"></path> </g> <g opacity="0.5"> <defs> <filter id="Adobe_OpacityMaskFilter" x="20.854" y="76.64" width="135" height="103.085"> <feFlood style="flood-color:white;flood-opacity:1" result="back"></feFlood> <feBlend in="SourceGraphic" in2="back" mode="normal"></feBlend> </filter> </defs> <mask maskUnits="userSpaceOnUse" x="20.854" y="76.64" width="135" height="103.085" id="SVGID_1_"> <g filter="url(#Adobe_OpacityMaskFilter)"> <image overflow="visible" width="580" height="447" transform="matrix(0.24 0 0 0.24 18.8545 74.6401)"> </image> </g> </mask> <g mask="url(#SVGID_1_)"> <linearGradient id="SVGID_2_" gradientUnits="userSpaceOnUse" x1="20.8545" y1="128.1826" x2="155.8545" y2="128.1826"> <stop offset="0" style="stop-color:#52632D"></stop> <stop offset="0.6347" style="stop-color:#80875D"></stop> <stop offset="1" style="stop-color:#9A9E7C"></stop> </linearGradient> <path fill="url(#SVGID_2_)" d="M20.854,125.559c-0.062,29.828,30.109,54.075,67.387,54.167 c37.277,0.09,67.549-24.013,67.613-53.837c0.058-29.825-29.687-49.159-66.963-49.248C51.612,76.548,20.916,95.735,20.854,125.559 z"></path> </g> </g> <g opacity="0.4"> <image overflow="visible" width="810" height="668" transform="matrix(0.24 0 0 0.24 -8.9019 -31.249)"> </image> </g> <path fill="#005A7A" d="M108.449,119.115c0,11.517,22.017,30.186,37.296,30.186c15.28,0,24.25-18.233,24.25-29.75 c0-11.516-18.6-21.287-33.88-21.287C120.835,98.263,108.449,107.599,108.449,119.115z"></path> </g> <g id="tree"> <path fill="#FFFFFF" d="M32.239,46.887c-0.079-0.178-0.101-0.458-0.399-0.479c-0.463,0.174-0.517-0.262-0.835-0.386 c-0.22,0.298-0.561,0.47-0.966,0.438c-0.539,0.085-0.597-0.516-1.063-0.508c0.042-0.167-0.146-0.509,0.213-0.579 c-0.176-0.547-0.917-0.077-1.312-0.263c-0.226-0.074-0.397-0.262-0.474-0.453c0.193-0.168,0.348,0.2,0.571,0.029 c-0.158-0.418-0.878-0.281-0.873-0.792c0.028-0.128,0.177-0.131,0.314-0.121c0.373-0.095,0.036-0.357,0.137-0.564 c0.014-0.064,0.104-0.117,0.179-0.093l0.346,0.763c0.092,0.165,0.481,0.019,0.366,0.302c0.064,0.268,0.316,0.071,0.42-0.005 c0.213,0.124-0.068,0.243-0.022,0.396c0.125,0.216,0.332-0.03,0.512,0.094c0.24-0.067-0.018-0.229,0.054-0.371 c0.116-0.232,0.667-0.433,0.392-0.684c-0.494,0.07-0.654-0.426-0.989-0.625c-0.243-0.124-0.404,0.083-0.614,0.125 c-0.077-0.089-0.349-0.161-0.323-0.328c0.013-0.065,0.103-0.167,0.208-0.132c0.703-0.163-0.262-0.405-0.164-0.7 c0.489-0.29-0.356-0.444-0.045-0.742c0.346,0.046,0.367,0.365,0.552,0.554c0.137,0.075,0.254-0.03,0.388-0.043 c0.303,0.071,0.189,0.393,0.313,0.52l0.236-0.132c0.188,0.304,0.59,0.209,0.805,0.487c0.108,0.1,0.362,0.021,0.364,0.173 c0.242,0.073,0.293,0.329,0.373,0.519c0.287,0.047,0.055-0.219,0.173-0.31c0.3-0.043,0.159,0.37,0.416,0.481 c0.213,0.151,0.502,0.3,0.723,0.053c0.143-0.348-0.519-0.301-0.703-0.604c0.165-0.718-0.888-0.78-1.361-1.118 c0.103-0.154,0.277-0.337,0.351-0.516c-0.164-0.703-0.627,0.187-1.113-0.049c-0.376-0.046-0.064-0.228-0.083-0.396 c-0.107-0.074-0.332-0.071-0.291-0.25c0.286,0.033,0.598-0.073,0.899-0.129c0.013-0.051-0.047-0.062-0.078-0.088 c-0.616-0.042-0.494-0.631-0.815-0.909c-0.036-0.293-0.551-0.516-0.271-0.801l0.592,0.336c0.13,0.42,0.584,0.63,0.949,0.868 c0.214,0.15,0.282-0.157,0.51-0.072c0.35,0.265,0.103,0.574,0.093,0.894c0.047,0.077,0.14,0.217,0.288,0.175 c0.504,0.262,0.472-0.506,0.974-0.193c0.149-0.054,0.085-0.219,0.101-0.283c-0.143-0.344-0.031-0.768-0.308-1.097 c-0.259-0.085-0.412-0.313-0.492-0.517l0.119-0.065c0.232-0.426-0.313,0.069-0.485-0.172c0.069-0.283-0.408-0.212-0.369-0.481 c0.307-0.426,0.349,0.225,0.62,0.196c0.539-0.111-0.204-0.434-0.121-0.728c0.389-0.058,0.518,0.375,0.763,0.564 c0.181,0.11,0.315,0.034,0.482,0.185c0.465-0.058,0.462,0.428,0.793,0.512c0.637-0.457,1.061,0.47,1.633,0.615 c0.109,0.128,0.232,0.278,0.487,0.211c0.088-0.079,0.146-0.157,0.174-0.246c-0.078-0.166-0.256-0.061-0.328,0.029 c-0.144-0.355-0.597-0.438-0.916-0.6c-0.107-0.1-0.293-0.391-0.516-0.299c-0.093-0.103-0.304-0.2-0.188-0.329 c-0.065-0.23-0.349-0.137-0.543-0.147c-0.271-0.06-0.563-0.259-0.403-0.556c-0.111-0.292-0.485-0.275-0.7-0.502 c-0.065-0.19,0.177-0.092,0.252-0.156c0.073-0.08,0.058-0.13-0.035-0.193c-0.258-0.162,0.163-0.181,0.174-0.334 c-0.108-0.152-0.275-0.252-0.441-0.339c-0.28-0.457-0.321-0.993-0.466-1.49c0.013-0.09,0.133-0.105,0.222-0.094 c0.145,0.446,0.439,0.85,0.851,1.215c0.429,0.377,0.897-0.294,1.224,0.226c0.349,0.25,0.249-0.235,0.474-0.29 c0.285,0.009,0.156,0.317,0.368,0.391c0.137,0.076,0.239-0.054,0.357-0.158c-0.033-0.077,0.056-0.194-0.08-0.242 c-0.527-0.031-0.838-0.539-1.25-0.813c0.059-0.129,0.238-0.184,0.404-0.186c0.208-0.002,0.338,0.431,0.543,0.17 c-0.244-0.124-0.324-0.378-0.551-0.503c-0.56-0.118-0.283-0.583-0.634-0.861c0.087-0.09-0.067-0.356,0.175-0.335l0.815,0.936 c0.289,0.188,0.557,0.042,0.855-0.014c-0.097-0.305-0.59-0.235-0.762-0.5c0.009-0.268-0.146-0.56-0.197-0.829 c0.342-0.106,0.186-0.463,0.166-0.679c0.477-0.301,0.248,0.381,0.627,0.476c0.15,0.024,0.283-0.043,0.387-0.159 c-0.11-0.268,0.242-0.669-0.197-0.855l0.324-0.223c0.133-0.09,0.009-0.357,0.233-0.335c0.095,0.229,0.488,0.3,0.343,0.584 c0.035,0.229,0.242,0.048,0.395,0.146c0.077,0.205-0.28,0.337-0.199,0.578c0.062,0.115,0.185,0.19,0.335,0.188 c0.226,0.086,0.278,0.469,0.551,0.567c0.059-0.103,0.01-0.243,0.021-0.371c0.391-0.108-0.072-0.663,0.454-0.646 c0.228,0.085,0.173,0.317,0.34,0.456c-0.057,0.154-0.371,0.185-0.353,0.402c0.139,0.188,0.316,0.007,0.468,0.147 c-0.343,0.094-0.411,0.517-0.814,0.536c-0.179,0.091-0.342,0.248-0.322,0.44c0.047,0.088,0.165,0.023,0.226,0.085 c0.269-0.158,0.597-0.201,0.742-0.51c0.103-0.028,0.15,0.049,0.211,0.099c0.009,0.41-0.193,0.822-0.624,1.02 c-0.224,0.069-0.236,0.272-0.068,0.398c0.317,0.084,0.448-0.186,0.715-0.254c0.38,0.161-0.05,0.488-0.088,0.731 c0.044,0.076,0.135,0.062,0.225,0.061c0.103-0.105,0.25-0.197,0.233-0.337c0.474-0.287,0.131-0.871,0.744-1.084l0.064-0.55 c0.162-0.081,0.079-0.488,0.354-0.289c0.078,0.14,0.008,0.308-0.067,0.437c-0.024,0.206-0.138,0.591,0.27,0.609 c0.046,0.181,0.051,0.308,0.009,0.487c0.552,0.517-0.84,0.793-0.513,1.389c0.2,0.265,0.463-0.147,0.679,0.117 c0.124,0.127-0.04,0.257-0.129,0.36c-0.522,0.188-0.859-0.178-1.338-0.132c-0.31,0.221,0.193,0.649-0.269,0.835 c0.006,0.308,0.409,0.172,0.579,0.336c0.251-0.144-0.067-0.332,0.065-0.5c0.372-0.107,0.469,0.185,0.798,0.18 c0.076-0.064-0.018-0.141-0.004-0.216c-0.048-0.153,0.177-0.158,0.237-0.196c0.754,0.079,0.165-0.719,0.75-0.831 c0.142-0.374,0.33-0.67,0.187-1.051c0.194-0.105,0.363,0.058,0.515,0.145c0.091,0.088-0.012,0.204-0.069,0.281 c0.023,0.488,0.318,0.879,0.058,1.344c0.185,0.24,0.445-0.186,0.663,0.079c-0.067,0.462-1.058,0.387-1.002,0.974 c-0.774,0.37,0.136,0.74-0.035,1.19l0.179-0.001c0.594,0.361-0.473,0.428-0.315,0.77c-0.296,0.185-0.015-0.152-0.26-0.237 c-0.358,0.082-0.861-0.18-0.973,0.231c0.079,0.076,0.183,0.099,0.303,0.085c0.197,0.074,0.067,0.268,0.113,0.396 c0.049,0.113,0.184,0.15,0.292,0.188c0.237-0.171,0.255,0.034,0.511,0.017c0.148-0.053,0.055-0.193,0.129-0.271 c0.466,0.019,0.5-0.468,0.706-0.663c0.249,0.342,0.509-0.033,0.796-0.011c0.643-0.15,0.286-0.722,0.626-1.02 c0.071-0.092,0.149,0.024,0.225,0.021c-0.084,0.27,0.026,0.576,0.046,0.806c-0.309,0.299-0.571,0.687-0.444,1.043 c0.122,0.073,0.255,0.008,0.359-0.057c0.135-0.014,0.313-0.145,0.437-0.006c0.021,0.319-0.52,0.301-0.71,0.561 c-0.175,0.271-0.436-0.006-0.611,0.188c-0.056,0.181,0.184,0.24,0.292,0.367c0.126,0.331-0.43,0.287-0.378,0.555 c0.06,0.05,0.106,0.127,0.211,0.087c0.204-0.286,0.445-0.173,0.689-0.011c0.244,0.111,0.78-0.14,0.831,0.205 c-0.058,0.129-0.192,0.195-0.357,0.159c-0.313,0.121-0.601-0.029-0.871,0.077c-0.002,0.55-0.452-0.031-0.749,0.076 c-0.059,0.014-0.208,0.106-0.147,0.156c0.094,0.114,0.037,0.293-0.126,0.334c-0.367-0.263-0.689,0.137-1.051,0.054 c-0.09,0.065-0.163,0.13-0.146,0.246c0.275,0.226-0.049,0.563,0.167,0.83c-0.009,0.242-0.263,0.438-0.53,0.494 c-0.025,0.282,0.377,0.109,0.441,0.327c0.17,0.251,0.131,0.573-0.209,0.744c-0.163,0.13-0.379-0.122-0.494,0.097 c-0.073,0.078-0.011,0.167,0.005,0.244c0.291,0.213,0.61,0.478,1.014,0.355c0.165-0.066,0.477-0.161,0.352-0.401 c-0.537-0.465-0.218-1.109-0.319-1.62c0.18-0.055,0.291,0.25,0.503,0.235c0.193-0.054,0.433-0.02,0.581-0.162 c0.07-0.27,0.035-0.461-0.24-0.637c0.087-0.243,0.357-0.068,0.482,0.044c0.377,0.059-0.033-0.152,0.102-0.307l0.104-0.003 c0.167,0.151,0.411,0.289,0.37,0.521c0.048,0.075,0.139,0.188,0.26,0.188c0.176-0.182,0.248-0.4,0.196-0.656 c0.434-0.186,0.215-0.477,0.314-0.772c0.273,0.034,0.218,0.342,0.327,0.52c0.14,0.241,0.391,0.109,0.592,0.298 c0.673,0.54-0.573,0.623-0.337,1.169c0.001,0.114,0.199,0.086,0.184,0.188c0.302,0.033,0.279,0.342,0.475,0.453 c0.237-0.119-0.054-0.472,0.243-0.592l0.397,0.237c0.147-0.067-0.007-0.244,0.143-0.31c0.179-0.078,0.229,0.139,0.395,0.187 c0.156,0.304-0.39,0.134-0.489,0.405c-0.039,0.269,0.338,0.34,0.478,0.517c-0.089,0.077-0.132,0.22-0.099,0.308 c-0.16,0.258-0.334-0.073-0.507,0.124c-0.571,0.059-0.214,0.59-0.557,0.813c-0.072,0.117-0.269,0.017-0.358,0.095 c-0.226-0.036-0.125-0.254-0.308-0.34c-0.226-0.074-0.544-0.236-0.75-0.079c-0.06,0.167,0.169,0.216,0.156,0.369 c-0.161,0.182-0.142,0.412-0.394,0.556c-0.254,0.068-0.407-0.096-0.649-0.08l-0.141,0.31c0.05,0.254-0.124,0.578,0.092,0.791 c0.336,0.393,0.597-0.123,1.005-0.014c0.252-0.172,0.665,0.232,0.836-0.128c0.135-0.079,0.372-0.21,0.466-0.008 c0.127,0.395-0.441,0.429-0.6,0.713c-0.281,0.234,0.197,0.177,0.187,0.394c-0.029,0.052-0.118,0.027-0.178,0.041 c-0.291-0.263-0.281,0.209-0.536,0.277c-0.327,0.12-0.682,0.394-1.076,0.208c-0.195,0.053-0.662-0.017-0.536,0.277 c-0.569,0.059-0.291,0.503-0.449,0.811c0.125,0.165,0.435,0.045,0.648,0.08c0.242,0.151,0.128,0.433,0.403,0.571 c0.137,0.151,0.052,0.383,0.235,0.52c0.568-0.2-0.208-0.598-0.018-0.881c0.637,0.22,0.333-0.607,0.781-0.729 c0.242,0.036,0.142,0.318,0.325,0.431c0.237-0.12,0.381-0.378,0.575-0.559c0.044-0.001,0.103-0.026,0.136,0.024 c0.178-0.028,0.266-0.184,0.322-0.313c-0.457-0.313,0.216-0.566,0.087-0.921c0.328-0.146,0.337,0.301,0.55,0.426 c0.256-0.041,0.217-0.362,0.502-0.443c0.316,0.022,0.58-0.263,0.827,0.052c0.088-0.041,0.073-0.116,0.072-0.18 c-0.352-0.238-0.464-0.582-0.707-0.822c-0.035-0.152,0.189-0.245,0.28-0.221c0.376,0.059,0.695,0.232,1.06,0.355 c0.296-0.183,0.44-0.479,0.372-0.812c0.148-0.116-0.038-0.421,0.278-0.4c0.414,0.378,0.063,0.882-0.08,1.268 c0.064,0.215,0.161,0.431,0.447,0.478c-0.056,0.31,0.088,0.678-0.163,0.924c-0.493,0.174-0.587,0.725-1.139,0.875 c-0.253,0.144-0.77-0.168-0.714,0.292c0.076,0.037,0.107,0.137,0.228,0.11c0.327-0.209,0.901,0.05,1.102-0.412 c0.121-0.079,0.241,0.009,0.333,0.085c0.096,0.255-0.311,0.26-0.32,0.465c0.075,0.05,0.107,0.113,0.108,0.19 c-0.508,0.199-0.107,0.642-0.448,0.926l-0.542-0.118c-0.269,0.118-0.339,0.388-0.636,0.508c0.197,0.126,0.501,0.312,0.449,0.607 c-0.289,0.645-0.773-0.282-1.261,0.108c-0.363-0.134-0.535,0.302-0.832,0.473c-0.239,0.119-0.379-0.2-0.607-0.208 c-0.043,0.051-0.146,0.078-0.116,0.154c0.11,0.19,0.279,0.444,0.594,0.387c0.151,0.074,0.154,0.203,0.143,0.344 c-0.027,0.128-0.176,0.13-0.313,0.119c-0.224,0.12-0.525,0.047-0.717,0.204c-0.089,0.09-0.086,0.23,0.082,0.305 c0.122,0.075,0.285-0.018,0.358-0.107c0.239-0.068,0.314-0.018,0.542,0.055c0.014-0.026,0.087-0.04,0.058-0.09 c0.28-0.246,0.724-0.599,1.194-0.415c0.148-0.091,0.174-0.271,0.308-0.312c0.123,0.113,0.096,0.318,0.054,0.459 c0.113,0.331,0.407-0.019,0.65,0.168c0.236-0.182-0.187-0.367,0.065-0.55c0.298-0.055,0.245,0.278,0.5,0.325 c0.301,0.021,0.446-0.287,0.685-0.342c0,0.076,0.137,0.087,0.109,0.177c-0.102,0.22-0.188,0.464-0.454,0.597 c-0.042,0.205,0.231,0.251,0.367,0.328c0.23,0.237-0.235,0.233-0.321,0.438c-0.116,0.245-0.619,0.662-0.014,0.832 c-0.044,0.04-0.103,0.066-0.073,0.116c-0.125,0.387-0.493,0.123-0.715,0.203c0.085,0.537-0.19,1.064,0.36,1.465 c-0.072,0.104-0.131,0.156-0.25,0.221c-0.081-0.279-0.265-0.468-0.555-0.643c-0.36-0.071-0.154,0.463-0.534,0.29 c0.034,0.165,0.098,0.343,0.085,0.484c-0.269,0.081-0.412-0.314-0.728-0.231c-0.625,0.214,0.056,0.511-0.207,0.833l-0.36-0.059 c-0.217,0.464-0.801,0.613-1.198,0.913l-0.259-0.085c-0.28,0.185,0.389,0.571,0.367,0.264c0.226,0.008,0.293,0.379,0.547,0.299 c-0.021-0.243-0.041-0.563,0.27-0.733c0.565-0.227,1.084-0.554,1.681-0.741c0.362-0.045,0.592-0.444,1.033-0.259 c0.164-0.015,0.245,0.265,0.408,0.148c0.294-0.26,0.139,0.19,0.367,0.275c0.21,0.036,0.508-0.122,0.714-0.292 c-0.05-0.293,0.324-0.375,0.424-0.618c0.194-0.08,0.521,0.451,0.495-0.009c0.269-0.144,0.031-0.653,0.529-0.534 c0.791-0.305-0.003-0.842,0.08-1.279c0.301,0.047,0.353,0.392,0.67,0.412c-0.022-0.306,0.314-0.08,0.458-0.274 c0.373-0.173,0.726,0.232,0.942,0.446c0.132-0.193-0.128-0.381,0.063-0.563c0.136,0.036,0.287,0.035,0.393,0.096 c0.181-0.015,0.208-0.182,0.294-0.285c0.147-0.208-0.072-0.601,0.302-0.644c0.212,0.111,0.233,0.366,0.267,0.57 c-0.294,0.235,0.029,0.664-0.418,0.838c-0.026,0.154,0.245,0.227,0.158,0.37c-0.044,0.102-0.222,0.182-0.327,0.158 c0.017,0.077,0.063,0.152,0.154,0.214c0.047,0.103,0.081,0.281-0.038,0.36c-0.336-0.328-0.75-0.002-1.031,0.208 c0.027,0.613,0.571-0.06,0.978,0.1c0.106,0.024,0.184,0.138,0.11,0.216c-0.538,0.2-0.707,0.688-0.88,1.086 c-0.174,0.271-0.316-0.084-0.467-0.146c-0.196,0.003-0.329,0.095-0.477,0.199c-0.147,0.13-0.041,0.245,0.008,0.397 c-0.01,0.23-0.313,0.131-0.461,0.25c0.095,0.19-0.157,0.386,0.086,0.523c0.286,0.061,0.4-0.287,0.607-0.444 c0.221-0.157,0.48,0.005,0.649,0.144c0.168,0.113,0.358-0.106,0.513,0.057c0.093,0.204-0.068,0.41-0.245,0.528 c-0.103,0.104-0.498-0.095-0.4,0.185c0.044,0.051,0.119,0.076,0.181,0.062c0.182,0.074,0.304,0.226,0.308,0.392 c-0.433,0.148-1.027-0.279-1.486,0.086c-0.029,0.053,0.045,0.077,0.048,0.127c0.231,0.278,0.679,0.195,1.008,0.164 c0.212,0.048,0.323,0.289,0.579,0.235c0.091,0.049,0.108,0.126,0.152,0.189c-0.493,0.111-0.168,0.555-0.419,0.827 c-0.177,0.117-0.286-0.086-0.438-0.148c-0.444,0.34,0.703,0.565,0.274,0.957c-0.422-0.097-0.596-0.543-1.09-0.51 c-0.28-0.329-0.736,0.14-1.086-0.137c-0.177,0.168-0.37,0.262-0.38,0.491c-0.088,0.143-0.255,0.031-0.333-0.045 c-0.061-0.051-0.063-0.152,0.027-0.193c-0.007-0.37-0.089-0.728-0.382-1.003c-0.496-0.044-0.229,0.488-0.346,0.682 c-0.232,0.35-0.785-0.18-1.077,0.234c0.051,0.204-0.217,0.348-0.305,0.489c-0.365-0.172-0.785-0.256-1.091-0.469 c-0.536,0.278-0.204,1.001-0.952,1.115c-0.439-0.147,0.23-0.438-0.088-0.55c-0.027,0.077-0.131,0.092-0.129,0.181 c-0.811,0.127-0.332-0.672-0.787-0.973c-0.137-0.061-0.285,0.003-0.391,0.07c-0.399,0.235-0.605-0.285-0.903-0.166 c0.048,0.19,0.1,0.496-0.214,0.578l-0.289-0.199c0.305-0.479-1.188-0.01-1.206,0.567c0.096,0.267,0.426,0.275,0.655,0.413 c0.164-0.055,0.084-0.193,0.097-0.31c0.455-0.569,0.566,0.44,1.117,0.266c0.091,0.049,0.259,0.125,0.187,0.241 c-0.375,0.017-0.749,0.062-1.001,0.359c-0.192,0.118,0.066,0.229,0.159,0.33c0.31-0.132,0.692,0.117,0.975-0.105 c-0.127-0.266,0.185-0.399,0.12-0.654c0.026-0.152,0.207-0.195,0.357-0.209c0.227,0.085,0.306,0.277,0.369,0.456 c-0.071,0.192-0.252,0.131-0.386,0.273c-0.042,0.078,0.079,0.102,0.109,0.153c0.091-0.015,0.211,0.034,0.254-0.069 c0.438,0.148,0.353-0.388,0.641-0.316c0.16-0.194,0.419-0.019,0.616-0.01c0.235-0.234,0.44-0.441,0.6-0.739 c0.521-0.236,0.888,0.091,1.269,0.38c0.373-0.135-0.142-0.33,0.02-0.525l0.181-0.002c0.441,0.3,0.883-0.078,1.366-0.02l0.656,0.489 c0.121,0.152-0.024,0.282-0.174,0.398c-0.223,0.067-0.463,0.006-0.677-0.053c-0.239,0.042-0.099,0.244-0.097,0.372 c-0.157,0.425-0.482-0.159-0.688,0.1c0.355,0.481-0.36,0.826-0.049,1.294c-0.075,0.04-0.118,0.167-0.253,0.118 c-0.203-0.354-0.699-0.386-1.048-0.56c-0.317-0.124-0.508,0.187-0.761,0.28c-0.362-0.034-0.329-0.699-0.759-0.386 c-0.252,0.119-0.289-0.212-0.472-0.301c-0.181-0.036-0.407-0.044-0.54,0.073c0.469,0.134,0.237,0.597,0.303,0.853 c-0.085,0.269-0.046,0.679-0.495,0.711c-0.215-0.202-0.4-0.456-0.225-0.765c-0.428-0.313-0.128,0.412-0.567,0.29 c-0.169-0.202-0.39,0.019-0.544-0.17l0.449-0.813c-0.044-0.025-0.091-0.075-0.151-0.063c-0.12,0.054-0.028,0.103,0.002,0.154 l-0.25,0.196c-0.119,0.066-0.242-0.061-0.392-0.059c-0.044,0.065-0.163,0.093-0.146,0.181c-0.075,0.016-0.181-0.008-0.239,0.043 c-0.4-0.493-0.296,0.26-0.685,0.253c-0.059,0.167,0.33,0.007,0.827,0.077c0.333,0.084,0.129,0.446,0.192,0.611h0.046l-0.119,0.091 c-0.089-0.011-0.115,0.181-0.208,0.067c-0.03,0.039-0.104,0.078-0.074,0.13c0.409,0.121,0.875,0.103,1.268,0.225 c0.314-0.107,0.65,0.208,0.867-0.167l0.139,0.151c0.453,0.083,0.759-0.306,1.116-0.503c0.092,0.037,0.227,0.035,0.285-0.068 c-0.017-0.038,0.028-0.104-0.034-0.126c0.028-0.143,0.193-0.119,0.314-0.094c0.224-0.093,0.024-0.244,0.038-0.372 c0.044-0.027,0.073-0.078,0.133-0.067c0.185,0.253,0.468,0.146,0.645-0.034c0.285-0.057,0.497,0.055,0.696,0.168 c0.375,0.058,0.2,0.342,0.115,0.523c0.036,0.268,0.315-0.005,0.468,0.121c0.221-0.208,0.628-0.214,0.574-0.559 c0.463-0.108,0.234,0.483,0.656,0.567c-0.027,0.142-0.114,0.271,0.082,0.369c0.376-0.121,0.655,0.35,0.934,0.05 c0.041-0.27-0.04-0.498-0.223-0.674c0.086-0.154,0.081-0.489,0.381-0.44c0.121,0.075,0.183,0.187,0.262,0.277 c0.476-0.149,0.387,0.583,0.877,0.421c0.243,0.138,0.312-0.184,0.415-0.289c0.295-0.323,0.396,0.187,0.665,0.145 c0.208-0.157,0.547-0.368,0.852-0.23c0.185,0.214-0.161,0.246-0.246,0.398c-0.013,0.116,0.092,0.205,0.154,0.255l0.104-0.066 c0.054-0.32,0.428-0.377,0.634-0.56c0.397,0.314-0.363,0.555-0.295,0.925c-0.12,0.041-0.271-0.021-0.359,0.122 c-0.086,0.192,0.168,0.15,0.261,0.238c0.115,0.484-0.545,0.546-0.824,0.818c-0.29-0.161-0.54,0.046-0.825,0.103 c-0.241-0.049-0.305-0.239-0.444-0.391c-0.063-0.088-0.148,0.017-0.208,0.068l0.292,0.302c0.227,0.15-0.152,0.629,0.341,0.57 c0.091,0.089,0.229,0.164,0.186,0.304c-0.235,0.273-0.421-0.108-0.647-0.104c-0.481,0.006-0.305,0.541-0.756,0.561 c-0.573-0.145,0.036-0.539-0.33-0.764c-0.121-0.036-0.305-0.123-0.361,0.032c-0.08,0.437-0.433,0.006-0.718,0.1 c-0.282,0.106-0.442,0.351-0.469,0.596c-0.132,0.092-0.28,0.222-0.463,0.135c-0.223,0.041-0.542-0.108-0.718,0.036 c0.051,0.307-0.526,0.75,0.094,0.92c0.11,0.255-0.341,0.26-0.321,0.491c0.29,0.149,0.008,0.409-0.092,0.564 c-0.314,0.119-0.589-0.056-0.83-0.205c-0.136,0.052-0.073,0.167-0.146,0.244c-0.178,0.066-0.242-0.11-0.421-0.057 c-0.324,0.31,0.337,0.34,0.432,0.582c0.259,0.149,0.266-0.183,0.431-0.224c0.134-0.079,0.194-0.002,0.257,0.085 c0.538-0.25,0.878,0.281,1.24,0.353c0.579-0.329,0.058-0.819,0.259-1.232l0.18-0.027c0.212,0.098,0.126,0.305,0.144,0.483 c0.278,0.342,0.458-0.453,0.84-0.101c0.553-0.162-0.095-0.908,0.522-0.903c0.008,0.357,0.472,0.391,0.731,0.54 c0.173,0.342-0.319,0.529-0.164,0.769c0.259,0.175,0.4-0.199,0.564-0.276c0.336,0.212,0.343,0.607,0.663,0.783 c0.166-0.003,0.192-0.157,0.281-0.247c0.501,0.313,0.709-0.561,1.125-0.042c0.272,0.123,0.311-0.222,0.535-0.315 c0.104-0.041,0.299-0.082,0.392,0.018c0.157,0.46,0.766,0.028,1.014,0.472c0.077,0.038,0.243,0.074,0.301-0.03 c0.096-0.397,0.495-0.033,0.719-0.099c0.175-0.234,0.403-0.097,0.644-0.074c0.188-0.399,0.631-0.036,0.896-0.295 c0.091,0.037,0.078,0.114,0.08,0.19c-0.236,0.221-0.596,0.303-0.757,0.536l0.442,0.198c0.028,0.653-0.928,0.13-1.175,0.606 c-0.176,0.155-0.188,0.36-0.168,0.591c0.11,0.255,0.466-0.02,0.576,0.235c0.077,0.102,0.051,0.268-0.098,0.333l-0.981-0.202 c-0.167-0.074-0.45,0.07-0.574-0.107c-0.24-0.086-0.221,0.156-0.4,0.223c-0.195,0.068-0.392-0.096-0.5-0.248 c-0.798-0.09-0.155,0.538-0.496,0.774c-0.267,0.093-0.2-0.227-0.367-0.328l-0.359,0.095c-0.447,0.186-0.488-0.261-0.761-0.449 c-0.076-0.025-0.197-0.112-0.253,0.004c-0.029,0.116,0.047,0.19,0.078,0.28c0.094,0.077,0.006,0.179-0.102,0.18 c-0.246-0.264-0.541-0.132-0.873-0.205c-0.227,0.032,0.047,0.154-0.147,0.221c-0.348-0.148-0.639-0.438-1.017-0.535 c-0.117,0.13-0.343,0.223-0.352,0.402c0.197,0.112,0.543,0.158,0.518,0.428c-0.488,0.34-0.714-0.424-1.236-0.289 c-0.088,0.103-0.191,0.234-0.098,0.373c-0.355,0.235-0.615,0.789-1.176,0.502c-0.149,0.094-0.22,0.221-0.218,0.375 c0.124,0.19,0.349,0.135,0.544,0.146c0.328-0.057,0.291-0.414,0.531-0.507c0.167,0.112,0.275,0.291,0.516,0.248 c0.328-0.069,0.143-0.284,0.32-0.438c0.361,0.02,0.691-0.049,1.036-0.081c0.228,0.15,0.472,0.353,0.774,0.424 c0.132-0.13-0.11-0.267-0.084-0.434c0.398-0.313,0.566,0.529,0.981,0.203c0.06-0.027,0.091,0.039,0.135,0.023 c0.055-0.217,0.341-0.248,0.502-0.404c0.212,0.011,0.521-0.238,0.649,0.029c-0.075,0.167-0.233,0.399-0.505,0.404 c-0.606,0.405,0.242,0.765,0.278,1.133c-0.165,0.029-0.496-0.068-0.643,0.101c-0.009,0.281-0.344,0.093-0.537,0.187 c-0.196,0.003-0.309-0.367-0.515-0.172c0.012,0.576,0.357,1.286,0.04,1.867c0.229,0.228,0.54-0.046,0.839-0.012 c0.23,0.099,0.368,0.34,0.507,0.516c0.359-0.067-0.067-0.331,0.065-0.487c0.167,0.011,0.282-0.157,0.355-0.261 c0.452,0.043,0.052,0.383,0.191,0.56l0.029-0.039c0.183,0.011,0.261,0.239,0.441,0.211c0.176-0.284,0.594-0.367,0.679-0.65 c0.684,0.463,0.081-0.41,0.56-0.469c0.246,0.239,0.515,0.133,0.832,0.192c0.163-0.055,0.235-0.195,0.248-0.336 c0.104-0.027,0.151,0.049,0.228,0.086c0.497,0.16,0.578-0.354,0.921-0.5c0.119-0.04,0.328-0.07,0.361,0.084 c-0.125,0.475-0.461,0.915-0.361,1.413c-0.479,0.109-0.394,0.646-0.747,0.88c-0.854,0.129,0.309,0.495,0.093,0.919 c-0.045,0.054-0.103,0.066-0.18,0.055c-0.306-0.291-0.709-0.182-1.085-0.188c-0.423-0.211-0.265,0.272-0.503,0.364 c-0.234,0.222,0.055,0.537-0.089,0.743c-0.087,0.143-0.242,0.004-0.361,0.005c-0.354,0.262-0.573-0.183-0.832-0.32 c-0.124-0.138-0.038-0.344-0.22-0.459c-0.746,0.193-0.299,0.773-0.412,1.109c-0.286-0.01-0.502-0.313-0.628-0.541 c-0.034-0.18-0.218-0.445-0.472-0.338c-0.462,0.172-0.035,0.538-0.058,0.807c-0.074,0.077-0.179,0.144-0.282,0.156 c-0.289-0.225-0.284-0.623-0.709-0.82c-0.499-0.121-0.169,0.425-0.422,0.595c-0.181-0.01-0.376,0.018-0.541-0.031 c-0.199-0.139-0.203-0.342-0.401-0.48c-0.226-0.048-0.452-0.07-0.569,0.124c-0.343,0.094-0.661,0.023-0.846-0.231 c-0.193,0.105-0.278,0.324-0.564,0.29c-0.167-0.048-0.2-0.201-0.188-0.341c-0.563-0.415-0.273,0.604-0.924,0.32 c-0.342-0.609-0.762,0.24-1.227,0.172c-0.161,0.271,0.271,0.124,0.365,0.275c0.227,0.086,0.45-0.058,0.566-0.187 c0.554-0.124,1.083,0.022,1.449,0.312l0.43-0.29c0.367,0.278,0.734-0.139,1.188-0.017c0.393,0.225,0.818,0.435,0.887,0.858 c-0.084,0.204-0.509,0.071-0.501,0.364c0.534,0.477,0.83-0.447,1.373-0.378c0.206,0.545,0.492-0.123,0.856-0.014 c0.31-0.323,0.848-0.37,1.256-0.3c0.254,0.036,0.261,0.264,0.339,0.429c-0.192,0.208-0.289-0.135-0.468-0.12 c-0.146,0.181-0.097,0.436-0.106,0.642c0.031,0.14-0.192,0.234-0.052,0.372c0.467,0.095,0.246-0.363,0.455-0.533 c0.296-0.145,0.362,0.174,0.576,0.272c0.199,0.203,0.45,0.008,0.644-0.072c0.5,0.146,0.653-0.394,1.071-0.476 c0.296-0.235,0.603,0.028,0.875,0.115c0.032,0.127,0.335,0.288,0.083,0.395c-0.242-0.061-0.533-0.364-0.768-0.079 c-0.263,0.362,0.341,0.571,0.348,0.917c-0.043,0.026-0.072,0.089-0.147,0.091c-0.214-0.136-0.356,0.209-0.571,0.009 c-0.138-0.126-0.375-0.047-0.463,0.095c-0.088,0.104-0.01,0.231,0.081,0.307c0.063,0.139,0.052,0.332-0.112,0.437 c-0.373,0.133-0.586-0.068-0.861-0.269c-0.364-0.174-0.536,0.2-0.822,0.253c-0.342,0.122-0.482-0.158-0.623-0.322 c-0.193,0.08-0.325,0.286-0.318,0.49c-0.213,0.682-0.652-0.232-0.978,0.053c-0.128,0.271,0.306,0.277,0.49,0.39 c0.063,0.178,0.039,0.485-0.107,0.679c-0.238,0.195-0.199,0.566-0.451,0.71c-0.349-0.2-0.688-0.618-1.121-0.445 c-0.147,0.143-0.143,0.386-0.141,0.553c0.207,0.47,0.8,0.104,1.193,0.29c0.281-0.185,0.705-0.089,0.939-0.385 c0.147-0.117,0.127-0.36,0.021-0.487c0.086-0.129,0.036-0.32,0.248-0.374c0.297-0.043,0.47,0.209,0.697,0.359 c0.18-0.015,0.359-0.069,0.418-0.223c0.201-0.322-0.027-0.638-0.26-0.878c0.029-0.063,0.101-0.18,0.207-0.158 c0.263,0.304,0.697,0.26,1.06,0.381c0.153,0.115,0.33-0.106,0.467,0.058c0.418,0.544,0.581-0.276,1.031-0.207 c0.167,0.049,0.201,0.188,0.308,0.277c0.059-0.001,0.133-0.014,0.179-0.066c0.237-0.12,0.659-0.062,0.931,0.049 c0.171,0.254-0.279,0.26-0.38,0.428c-0.192,0.131,0.172,0.318-0.111,0.436c-0.193,0.093-0.32-0.135-0.544-0.119 c-0.193,0.105-0.188,0.31-0.125,0.462c-0.309,0.312-0.608-0.298-0.902-0.012c0.002,0.026-0.012,0.077,0.034,0.087 c0.063,0.206,0.233,0.47,0.012,0.653c-0.311,0.249-0.349-0.186-0.577-0.272c-0.179,0.028-0.377-0.045-0.509,0.072 c-0.146,0.219,0.276,0.302,0.236,0.521c-0.129,0.232-0.459,0.302-0.759,0.318c-0.485-0.223-0.913,0.206-1.47,0.113 c-0.194,0.078-0.145,0.258-0.249,0.375c0.063,0.035,0.107,0.086,0.184,0.11c0.808-0.1,1.556-0.316,2.364-0.432 c0.211-0.041,0.296-0.22,0.248-0.4c0.13-0.27,0.392,0.045,0.584-0.073c0.424,0.187,0.594-0.341,1.033-0.232 c0.22-0.22,0.464,0.071,0.72,0.054c0.375-0.057,0.186-0.451,0.577-0.495c0.195,0.062,0.2,0.305,0.144,0.458 c-0.596,0.241,0.017,0.832-0.473,1.133c0.047,0.192,0.278,0.407,0.012,0.562c-0.24,0.068-0.495,0.021-0.693-0.091 c-0.161,0.144,0.053,0.409-0.168,0.528c-0.117,0.091-0.24-0.035-0.333-0.11c-0.21-0.024-0.237,0.195-0.309,0.31 c-0.18-0.009-0.246-0.238-0.44-0.211c-0.191,0.182-0.353,0.364-0.316,0.619c0.077,0.204,0.36,0.097,0.513,0.21 c0.385,0.467,0.885-0.051,1.29-0.121c0.428,0.299,0.695-0.433,1.077-0.171c0.012,0.576-0.752,0.626-1.09,1.042 c-0.011,0.152-0.083,0.281-0.246,0.399c-0.329,0.222-0.443-0.327-0.728-0.207c0.19,0.355-0.262,0.401-0.484,0.557 c-0.222,0.118-0.523,0.072-0.692-0.104c0.102-0.872-0.646-0.093-1.091-0.444c-0.06,0.065-0.193,0.118-0.175,0.208 c0.202,0.368-0.458,0.377-0.346,0.721c-0.131,0.207-0.433,0.095-0.612,0.213c-0.072,0.065,0.003,0.154,0.081,0.154 c0.478-0.099,0.355,0.53,0.803,0.396c0.346,0.071,0.869-0.088,1.191,0.136c0.149,0.049,0.033,0.179-0.026,0.244 c-0.149,0.028-0.255-0.036-0.362-0.059c-0.133,0.078-0.177,0.181-0.249,0.284c-0.24,0.055-0.367-0.302-0.623-0.297 c-0.329,0.082-0.171,0.4-0.5,0.519c-0.038,0.333-0.429,0.34-0.588,0.598c-0.736,0.024-0.238-0.611-0.604-0.887 c-0.419,0.096-0.489-0.376-0.862-0.344c-0.251,0.272,0.412,0.301,0.297,0.609c0.336,0.276,0.494,0.696,0.382,1.069 c-0.088,0.078-0.179-0.022-0.255-0.034c-0.375,0.132-0.561-0.183-0.834-0.295c-0.133,0.078-0.27-0.047-0.332-0.149 c-0.277-0.29,0.326-0.26,0.274-0.528c-0.063-0.05-0.123-0.126-0.214-0.151c-0.12,0.041-0.208,0.157-0.207,0.259 c-0.399,0.248-0.578-0.375-0.952-0.356c-0.096-0.243,0.034-0.5-0.119-0.676c-0.376,0.019-0.491-0.492-0.874-0.141 c0.05,0.319-0.32,0.529-0.48,0.749l-0.41-0.211c-0.491,0.264-1.045,0.387-1.612,0.511c-0.167-0.1-0.409-0.097-0.603-0.056 c-0.257-0.071-0.159-0.317-0.235-0.482c-0.165-0.048-0.178,0.093-0.251,0.157c-0.513-0.044-0.195-0.585-0.439-0.889 c-0.139-0.203-0.424-0.199-0.625-0.322c-0.032,0.538-0.71,0.381-1.114,0.502c-0.194,0.079-0.416,0.274-0.411,0.466 c0.434,0.749,0.458-0.352,0.957-0.193c0.309,0.354,0.705-0.062,1.056,0.202c0.077,0.19,0.021,0.307-0.066,0.488 c0.002,0.153-0.007,0.382,0.192,0.495c0.138,0.203-0.054,0.385-0.277,0.427c0.015,0.039-0.029,0.103,0.032,0.127 c-0.088,0.117-0.129,0.31-0.309,0.338c-0.318-0.137-0.809,0.087-0.983-0.293c-0.274-0.226,0.23-0.489-0.117-0.574 c-0.16,0.271-0.474,0.315-0.787,0.407c-0.257-0.047-0.155-0.291-0.338-0.391c-0.226-0.048-0.176,0.272-0.417,0.186 c-0.216-0.228-0.491-0.39-0.628-0.604c-0.194,0.066-0.264,0.362-0.509,0.16c-0.138-0.152-0.127-0.355,0.035-0.486 c0.102-0.154,0.286-0.068,0.42-0.045c0.328-0.145,0.066-0.385,0.137-0.615c-0.125-0.279-0.33,0.017-0.463,0.071 c-0.209,0.002-0.445,0.287-0.616,0.008c-0.079-0.088-0.258-0.086-0.33,0.03c0.125,0.331,0.594,0.567,0.369,0.724l-0.318-0.251 c0.16-0.873-0.817-0.18-1.173-0.686c-0.213-0.214,0.233-0.375,0.018-0.55c-0.203,0.168-0.318-0.175-0.541-0.019 c0.063,0.754,0.09,1.432,0.195,2.146c0.145,1.201,0.215,17.712,0.468,19.012c0.05,0.268,0.518,0.427,0.374,0.724 c-0.281,0.146-0.615,0.009-0.929,0.015c-0.293,0.246-0.469-0.146-0.725-0.168c-0.529,0.571-2.264-0.042-2.841,0.336 c-0.37,0.224-0.396-0.289-0.753-0.016l-0.031-0.126c0.372-0.914,0.5-1.901,0.722-2.865c-0.205-1.274,0.327-17.628,0.001-18.864 c-0.225,0.054-0.325,0.286-0.457,0.402c-0.386,0.264-0.591-0.195-0.907-0.228c-0.584,0.059,0.067,0.368-0.137,0.64 c-0.042,0.142-0.223,0.159-0.357,0.185c-0.186-0.329-0.482-0.107-0.782-0.167c-0.163,0.182-0.402,0.25-0.352,0.493 c-0.357,0.183-0.396-0.2-0.622-0.325c-0.396-0.249-0.532,0.495-0.974,0.196c-0.27-0.035-0.066-0.319-0.336-0.354L29.076,96.3 c0.049,0.153,0.022,0.333,0.189,0.432c0.258,0.035,0.524-0.071,0.827-0.038c0.105,0.049,0.21,0.085,0.212,0.202 c-0.042,0.052-0.102,0.103-0.175,0.13c-0.32-0.123-0.762,0.28-0.934-0.075c-0.076,0-0.166-0.011-0.209,0.067 c0,0.051,0.06,0.076,0.105,0.114c0.228,0.047,0.417,0.428,0.726,0.182c0.166,0.061,0.187,0.24,0.219,0.393 c-0.045,0.052-0.105,0.066-0.18,0.067c-0.186-0.342-0.483-0.121-0.756-0.245c-0.137-0.05-0.315-0.034-0.402,0.109 c-0.24,0.054-0.246-0.202-0.426-0.275c-0.348-0.084-0.279,0.323-0.533,0.404c-0.303-0.123-0.206-0.483-0.24-0.7 c-0.233-0.33-0.629,0.176-0.832-0.205c-0.593,0.314-0.503-0.428-0.912-0.511c-0.147,0.078-0.144,0.218-0.143,0.346 c-0.373,0.185-0.515,0.546-0.659,0.866c-0.287-0.097-0.543-0.221-0.803-0.383c-0.3,0.005-0.559-0.12-0.829-0.18 c-0.178,0.13-0.233,0.4-0.505,0.379c-0.141-0.305-0.437-0.147-0.652-0.36c-0.093-0.167-0.067-0.307,0.141-0.426 c0.193-0.13,0.288,0.1,0.469,0.11c0.087-0.092,0.265-0.171,0.249-0.313c-0.156-0.342-0.526,0.046-0.77-0.141 c-0.349-0.2,0.173-0.425,0.136-0.668c-0.106-0.114-0.229-0.188-0.408-0.146l-0.047,0.64c-0.439-0.198-0.534,0.29-0.895,0.32 c-0.408-0.108-0.844-0.179-1.24-0.313c-0.28,0.068-0.643,0.112-0.741,0.406c-0.209,0.069-0.348-0.096-0.441-0.209 c-0.298,0.042-0.725-0.232-0.897,0.141c-0.089,0.002-0.181,0.016-0.227-0.06c0.085-0.193-0.173-0.369,0.064-0.499 c0.287,0.109,0.461-0.199,0.794-0.102c0.162-0.22,0.466-0.033,0.611-0.252c0.297-0.183,0.052-0.384-0.116-0.548 c-0.224,0.003-0.278,0.324-0.536,0.275c-0.195-0.072-0.081-0.278-0.188-0.392c-0.305-0.175-0.569-0.631-0.957-0.563 c-0.091-0.036-0.212-0.112-0.216-0.213c0.36-0.773,1.513,0.438,1.793-0.463c0.163-0.104,0.301,0.06,0.438,0.123 c0.33-0.082,0.784,0.154,1.079-0.106c-0.061-0.115-0.034-0.268-0.186-0.344c-0.229-0.148-0.298,0.197-0.538,0.1 c-0.455-0.199,0.048-0.476-0.063-0.768c-0.097-0.394-0.448,0.033-0.722-0.142c-0.312,0.184,0.117,0.614-0.378,0.62 c-0.27,0.005-0.259-0.239-0.413-0.353c-0.314-0.02-0.1,0.31-0.352,0.403c-0.423-0.071-0.374-0.583-0.737-0.731 c-0.148,0.042-0.145,0.194-0.234,0.286c-0.104,0.116-0.284,0.042-0.361-0.06c0.038-0.372-0.458-0.262-0.67-0.451 c-0.191-0.47-0.657,0.164-0.935-0.165c-0.078-0.152-0.037-0.331,0.096-0.436c0.146-0.246,0.317,0.085,0.51-0.072 c0.042-0.179-0.1-0.408-0.057-0.575c-0.107-0.1-0.219-0.483-0.471-0.25c-0.304-0.124-0.172-0.354-0.267-0.61 c-0.081-0.177-0.305-0.199-0.5-0.196c-0.152-0.036-0.337-0.174-0.262-0.342c0.185-0.399,0.495,0.056,0.825-0.012 c0.328-0.068,0.651,0.272,0.944-0.077c0.179,0.035,0.275,0.25,0.47,0.273c0.09-0.052,0.073-0.142,0.177-0.181 c0.179-0.066,0.273,0.124,0.365,0.199c0.434-0.083,0.307,0.329,0.626,0.425c0.105-0.04,0.284-0.093,0.278-0.22 c-0.227-0.229-0.205-0.562-0.419-0.788c-0.019-0.127-0.145-0.445,0.111-0.437c0.307,0.276,0.716,0.463,1.123,0.598 c0.165-0.042,0.176-0.234,0.387-0.186c0.331,0.021,0.172,0.33,0.372,0.456c0.713-0.331,0.767,0.845,1.386,0.248 c0.123,0.062,0.258,0.163,0.217,0.304c0.021,0.37-0.44,0.48-0.632,0.687c0.167,0.074,0.27-0.004,0.438,0.056 c0.236-0.117,0.25-0.284,0.379-0.466c0.33-0.054,0.114-0.41,0.426-0.49l0.396,0.325c0.289,0.1,0.208-0.181,0.325-0.285 c-0.332-0.084-0.524-0.722-0.983-0.342c-0.034-0.282-0.351-0.291-0.576-0.275l-0.002-0.127c0.177-0.119,0.387-0.172,0.642-0.163 c0.433-0.122-0.28-0.381,0.199-0.49c0.256-0.055,0.586-0.072,0.77,0.118c0.115,0.574,0.739,0.142,1.09,0.444 c0.131-0.233-0.398-0.404-0.373-0.647c0.475-0.275-0.402-0.582,0.193-0.835c0.371-0.184,0.472,0.364,0.796-0.012 c0.213,0.138,0.541,0.069,0.681,0.297c0.093,0.113,0.034,0.242-0.099,0.309c-0.043,0.065-0.072,0.207,0.051,0.255 c0.108,0.075,0.194-0.042,0.314-0.004c0.194-0.106,0.19-0.271,0.171-0.438l0.151-0.003c0.356-0.261,0.696,0.246,1.003-0.104 c0.058-0.155,0.189-0.374,0.019-0.525c-0.137-0.087-0.39,0.006-0.538,0.098c-0.198-0.125-0.719,0.061-0.653-0.323 c-0.123-0.153-0.305-0.201-0.469-0.236c-0.164,0.04-0.116,0.206-0.145,0.335c-0.102,0.102-0.205,0.194-0.387,0.158 c-0.435-0.058-0.22-0.483-0.553-0.632c-0.297,0.12,0.024,0.397-0.274,0.554c-0.269,0.083-0.249,0.35-0.577,0.317 c-0.119,0.104-0.448,0.225-0.308,0.426c-0.083,0.385-0.51,0.072-0.794,0.166c-0.121-0.011-0.197-0.151-0.109-0.242 c0.129-0.271-0.073-0.562-0.375-0.671c-0.152-0.086-0.453-0.083-0.584,0.048c-0.317-0.073-0.678-0.082-0.938-0.333 c-0.612,0.188-0.537-0.568-1.12-0.341c-0.419-0.007-0.264-0.47-0.55-0.517c-0.06,0.039-0.118,0.09-0.145,0.155 c-0.228,0.042-0.406,0.071-0.619-0.03c-0.139-0.203,0.143-0.359,0.093-0.577c-0.17-0.239-0.327,0.083-0.541,0.034 c-0.783-0.141,0.013-0.807-0.488-1.092c0.594-0.379-0.595-0.439-0.151-0.804c0.388-0.082,0.74,0.116,1.042,0.292 c0.55-0.354,0.598,0.553,1.163,0.239c0.044,0.063,0.183,0.124,0.255-0.005c0.12,0.024,0.239,0.035,0.318,0.149 c0.286,0.048,0.667,0.284,0.901-0.013c0.235-0.233,0.481,0.069,0.693,0.143c0.462-0.199,0.136-0.655,0.267-0.963 c-0.281-0.406-0.849-0.32-1.273-0.468c-0.194,0.016-0.355,0.274-0.568,0.099c-0.183-0.125-0.007-0.294,0.021-0.436 c0.162-0.117,0.403-0.159,0.613-0.098c0.242,0.036,0.458,0.314,0.696,0.182c0.469,0.109,0.805,0.5,1.404,0.336 c0.407,0.109,0.4,0.494,0.6,0.734c-0.07,0.205-0.402,0.108-0.504,0.226c0.015,0.062,0.107,0.138,0.182,0.15 c0.555-0.085,1.07,0.137,1.697,0c0.253-0.106,0.293-0.337,0.38-0.531c0.668-0.368,0.464,0.697,1.193,0.354 c0.218,0.38,0.796-0.011,1.029,0.355c0.691,0.028,0.843-0.64,1.167-0.938c0.115-0.27-0.323-0.392-0.476-0.543 c-0.445,0.263,0.269,0.649-0.162,0.95c-0.252,0.131-0.542-0.081-0.723-0.143c0.236-0.183-0.056-0.422,0.091-0.641 c-0.575-0.26-1.156,0.004-1.772-0.064c-0.227-0.036-0.526,0.021-0.673,0.215c0.1,0.421-0.493,0.136-0.605,0.442 c-0.255,0.057-0.513-0.054-0.697-0.231c-0.127-0.356,0.49-0.302,0.454-0.558c-0.633-0.168-0.104-0.777-0.486-1.014 c-0.307,0.273-0.758,0.318-0.916,0.729c-0.299,0.068-0.766,0.012-1.127-0.048l-0.03,0.026c-0.378-0.121-0.067-0.396-0.371-0.542 c-0.378-0.161-0.841,0.024-1.231,0.107c-0.316-0.111-0.689,0.022-0.907-0.32c-0.336-0.276-0.445,0.262-0.779,0.165 c-0.242-0.059-0.215-0.278-0.263-0.431c0.018-0.55,0.688-0.151,0.89-0.537c-0.018-0.154-0.097-0.28-0.265-0.393 c-0.255-0.06-0.387,0.121-0.612,0.098c-0.093-0.127-0.175-0.356-0.147-0.574c-0.083-0.369-0.514-0.185-0.772-0.271 c-0.079-0.203,0.226-0.04,0.252-0.221c-0.069-0.356-0.514-0.12-0.725-0.167c-0.065-0.319-0.563-0.313-0.629-0.631 c0.396-0.504,0.874,0.103,1.31,0.161c0.42-0.096,0.594,0.387,1.012,0.292c0.583-0.175,1.102,0.226,1.63,0.41 c0.21-0.03,0.433-0.187,0.489-0.352c0.04-0.295-0.337-0.341-0.578-0.388c-0.172-0.356-0.801-0.245-0.886-0.691 c-0.154-0.126-0.268,0.132-0.42,0.006c-0.229-0.188-0.666-0.247-0.672-0.579c0.069-0.294,0.287,0.085,0.403-0.094 c-0.199-0.214-0.591-0.247-0.775-0.476l0.25-0.22c-0.039-0.384-0.388,0.082-0.575-0.146c0.127-0.398-0.369-0.493-0.6-0.733 c-0.063-0.088-0.141-0.254-0.008-0.333c0.12-0.04,0.138,0.087,0.227,0.087c0.116,0.521,0.73,0.398,1.125,0.622 c0.549-0.328,0.654,0.413,1.017,0.51c0.207-0.119,0.174-0.375,0.427-0.429c0.305,0.265,0.979,0.138,0.99,0.651 c0.307-0.326,0.497,0.107,0.724,0.181c0.199-0.618,0.617,0.054,1.079-0.171c0.244,0.139,0.306,0.329,0.298,0.547 c0.328-0.032,0.199,0.226,0.439,0.325c0.242,0.035,0.328-0.209,0.506-0.313c0.196,0.061,0.331,0.059,0.54-0.009 c0.228,0.098,0.157,0.292,0.219,0.433c-0.029,0.101-0.191,0.168-0.283,0.093c-0.075,0.013-0.134,0.078-0.103,0.155 c0.549,0.35,1.282,0.3,1.946,0.367c0.85-0.32-0.549-0.426-0.197-0.855c0.554-0.109,0.953,0.371,1.351,0.633l0.387-0.108 c0.323-0.49,0.812,0.026,1.231-0.107c0.648,0.156,1.312,0.313,2.063,0.277c0.314-0.056,0.444-0.314,0.743-0.408 c0.311-0.235,0.458,0.363,0.723,0.015c0.084-0.155-0.128-0.305-0.266-0.419c-0.366,0.416-1.078,0.145-1.545,0.204 c-0.263,0.31-0.599-0.069-0.896,0.165c-0.256-0.111-0.112-0.292-0.145-0.482c-0.213-0.19-0.471-0.276-0.729-0.361 c-0.255,0.068-0.444,0.339-0.715,0.292c-0.353-0.276-0.581,0.278-0.872,0.014c-0.063-0.179-0.051-0.292-0.01-0.46 c-0.093-0.114-0.213-0.138-0.364-0.123c-0.106-0.063-0.168-0.152-0.185-0.241c-0.425-0.197-0.426-0.978-1.065-0.663 c-0.166-0.061-0.108-0.215-0.186-0.33c0.191-0.219,0.436,0.008,0.661-0.011c0.132-0.064-0.005-0.229,0.173-0.282 c0.073-0.129,0.099-0.322-0.125-0.37c-0.269,0.208-0.484-0.094-0.682-0.232c-0.197-0.062-0.427-0.34-0.62-0.146 c0.014,0.04-0.027,0.104,0.034,0.128c0.123,0.089,0.125,0.305,0.008,0.396c-0.311,0.196,0.338,0.34,0.011,0.576 c-0.131,0.155-0.373,0.147-0.466-0.044c-0.123-0.152,0.039-0.295,0.143-0.411c-0.259-0.227-0.117-0.535-0.198-0.815 c-0.498-0.134-0.547,0.392-0.86,0.525c-0.255,0.028-0.526-0.044-0.795,0.05c-0.203-0.33-0.62-0.233-0.909-0.421 c-0.155-0.19,0.126-0.425,0.031-0.642c-0.214-0.201-0.563-0.349-0.905-0.229c-0.314,0.12-0.143,0.385-0.396,0.519 c-0.6,0.034-0.101-0.55-0.512-0.76c-0.224,0.042-0.509,0.033-0.578,0.265c-0.09,0.063-0.212,0.003-0.288-0.06 c-0.021-0.309,0.309-0.325,0.533-0.443l0.215-0.426c-0.155-0.305-0.312-0.621-0.558-0.887c0.319-0.529,0.743,0.334,1.214-0.018 c0.182,0.087,0.336,0.239,0.371,0.392c0.135,0.011,0.239,0.035,0.283-0.069c0.295-0.247,0.632,0.056,0.846,0.205 c0.558-0.609,0.613,0.619,1.298,0.288c0.344-0.03,0.02-0.41,0.427-0.402c0.633,0.079,1.347,0.478,1.983,0.098 c0.386-0.274,0.59,0.158,0.804,0.346c0.198,0.023,0.377-0.031,0.571-0.059c0.28-0.273,0.899-0.089,0.994-0.54 c-0.427-0.364-0.7,0.292-1.15,0.261c-0.182-0.049-0.379-0.238-0.249-0.431c0.16-0.284,0.466-0.019,0.639-0.317 c0.308-0.428-0.46-0.455-0.481-0.786c0.223-0.118,0.469,0.134,0.724,0.169c0.194-0.055,0.372-0.211,0.645-0.163 c0.216,0.316,0.628-0.125,0.83,0.243c0.108,0.088,0.347,0.071,0.435-0.045c0.429-0.376,0.755,0.116,1.045,0.331 c0.312-0.082,0.171-0.373,0.423-0.507c0.227-0.015,0.273,0.112,0.44,0.187c0.226-0.081,0.464-0.109,0.688-0.202 c0.291,0.226,0.464-0.147,0.783,0.052c0.236-0.208-0.196-0.061-0.244-0.175c0.012-0.115-0.082-0.268,0.052-0.347 c0.105-0.025,0.167,0.049,0.229,0.085c0.151,0.025,0.376,0.084,0.493-0.033c-0.139-0.163-0.486-0.311-0.507-0.542 c0.114-0.321,0.407,0.083,0.612-0.136c-0.047-0.18-0.32-0.315-0.516-0.415c-0.476,0.275-0.788-0.232-1.266-0.136 c-0.388,0.133,0.159,0.394-0.167,0.578c-0.241,0.042-0.217-0.214-0.367-0.265c-0.237,0.209-0.291,0.479-0.453,0.712 c-0.198-0.164-0.483-0.172-0.696-0.334c-0.273-0.112-0.234,0.272-0.46,0.287c-0.165,0.042-0.416,0.211-0.542-0.016 c-0.047-0.141,0.072-0.22,0.069-0.348c-0.288-0.188-0.588-0.131-0.905-0.14c-0.295,0.158,0.098,0.28,0.114,0.433 c-0.13,0.194-0.341,0.095-0.537,0.187c-0.385-0.519-1.16-0.199-1.705-0.397l-0.138-0.151c-0.061-0.05-0.183-0.048-0.225,0.029 c0.101,0.51-0.345,0.057-0.566,0.226c-0.187,0.374-0.573,0.647-0.93,0.846c-0.243-0.164-0.398-0.417-0.435-0.671 c0.207-0.272,0.139-0.618,0.299-0.9c-0.048-0.076-0.139-0.177-0.26-0.176c-0.087,0.066-0.086,0.168-0.175,0.246 c-0.059,0.039-0.224,0.067-0.285-0.022c-0.183-0.111-0.058-0.535-0.369-0.429c-0.221,0.195-0.453-0.056-0.576-0.209 c-0.245-0.237-0.462,0.134-0.687,0.202c-0.252,0.171-0.497-0.044-0.681-0.208c-0.4-0.441,0.353-0.324,0.484-0.531 c0.469,0.134,0.747-0.216,0.997-0.476c-0.185-0.291-0.473-0.428-0.792-0.577c-0.179,0.055-0.175,0.234-0.4,0.198 c-0.354-0.339,0.455-0.543,0.265-0.925c-0.184-0.228-0.4-0.543-0.787-0.359c-0.228-0.048-0.278-0.303-0.161-0.458 c-0.065-0.204-0.389,0.032-0.469-0.209c0.177-0.17-0.133-0.677,0.348-0.582c0.257,0.138,0.381,0.315,0.583,0.504 c0.381,0.301,0.08-0.386,0.428-0.313c0.202,0.341,0.435,0.696,0.917,0.753c0.113,0.382,0.783,0.104,0.913,0.549 c0.241,0.009,0.192-0.22,0.354-0.313c0.288,0.111,0.622,0.337,0.63,0.656c0.324,0.417,0.593-0.354,0.9,0.024 c0.092,0.075,0.277,0.251,0.083,0.331c0.015,0.09-0.041,0.231,0.109,0.242c0.163-0.09,0.341-0.248,0.428-0.364 c-0.138-0.178-0.32-0.252-0.339-0.456c-0.053-0.383-0.543-0.095-0.7-0.399c-0.018-0.154,0.041-0.283,0.068-0.424 c-0.127-0.305-0.504-0.351-0.805-0.423c-0.065-0.254-0.312-0.481-0.225-0.763c0.286,0.11,0.415-0.2,0.644-0.101 c0.56,0.274,0.964,0.855,1.683,0.807c0.54-0.009,0.387,0.557,0.841,0.691l0.134-0.091c-0.124-0.19-0.294-0.405-0.193-0.612 l0.434-0.07c0.014-0.063-0.018-0.103-0.032-0.153c0.325-0.185,0.619,0.195,0.932,0.139c0.014-0.179-0.32-0.25-0.264-0.456 l0.121-0.002c0.091,0.062,0.244,0.163,0.424,0.122c0.357,0.544,0.969,0.369,1.529,0.526c0.158,0.433,0.785,0.207,0.987,0.625 c0.196-0.029,0.424,0.123,0.541-0.071c-0.002-0.026,0.014-0.077-0.033-0.088c-0.032-0.141-0.157-0.332,0.097-0.374 c0.358-0.16,0.668,0.297,0.934,0.088c-0.245-0.226-0.55-0.465-0.911-0.549c-0.302-0.047-0.586,0.099-0.824,0.23 c0.017,0.039-0.027,0.102,0.034,0.128c-0.06,0.038-0.104,0.116-0.208,0.092c-0.205-0.47-0.819-0.372-1.098-0.726 c-0.284,0.057-0.513-0.172-0.757-0.296c-0.333-0.199-0.614,0.124-0.868,0.167c-0.394-0.148-0.717,0.126-0.923,0.385 c-0.314,0.081-0.713-0.284-1.05-0.009c-0.289-0.138-0.161-0.433-0.405-0.584c-0.134-0.01-0.239,0.018-0.328,0.094 c-0.134,0.029-0.374,0.109-0.466-0.044c0.021-0.409,0.595-0.354,0.892-0.537c0.197-0.616-0.648-0.054-0.779-0.576 c-0.318-0.124-0.371,0.235-0.672,0.226c-0.352-0.366-0.156-1.136-0.969-1.149c-0.212-0.073-0.381-0.25-0.369-0.456 c0.053-0.319,0.374-0.081,0.534-0.287c-0.245-0.188-0.206-0.574-0.613-0.631c-0.038-0.332-0.134-0.664-0.35-0.956 c0.374-0.056,0.65,0.26,0.984,0.396c0.265-0.247,0.582-0.138,0.855,0.038c0.067,0.267,0.458,0.275,0.524,0.516 c0.223-0.092,0.553-0.047,0.685-0.278c0.466-0.032-0.023,0.334,0.191,0.509c0.42,0.032,0.248,0.458,0.582,0.58 c0.226-0.041,0.251-0.285,0.506-0.25c0.227,0.073,0.277,0.264,0.296,0.456c0.062,0.166,0.227,0.138,0.393,0.108 c0.257,0.139,0.555-0.006,0.826-0.011c0.286,0.022,0.231,0.354,0.545,0.274c0.442,0.365,0.78-0.064,1.261-0.019 c0.33-0.069,0.443-0.364,0.422-0.62c-0.03-0.064-0.107-0.166-0.212-0.126c-0.165,0.042-0.146,0.195-0.25,0.286 c-0.193,0.106-0.478,0.187-0.69,0.074c-0.188-0.367-0.656-0.54-0.979-0.841c-0.067-0.37-0.836-0.512-0.454-0.916 c-0.095-0.203-0.375,0.007-0.469-0.185c0.248-0.413-0.548-0.35-0.345-0.699c0.117-0.065,0.254-0.004,0.36,0.021 c0.489-0.365,0.715,0.412,1.159,0.135c0.347,0.047,0.597,0.491,0.868,0.513c0.087-0.105,0.041-0.192-0.006-0.308l0.539-0.097 c0.225,0.033,0.021,0.279,0.187,0.367c0.404-0.146,0.323,0.341,0.669,0.361c0.205-0.195,0.549-0.314,0.528-0.621 c-0.123-0.114-0.259-0.163-0.366-0.251c-0.004-0.205,0.283-0.083,0.387-0.211c0.073-0.077,0.012-0.167-0.08-0.215 c-0.507,0.136-1.054-0.061-1.478-0.285l0.127-0.373c-0.138-0.178-0.411-0.264-0.651-0.299l-0.203,0.374 c-0.773,0.397-0.523-0.58-0.992-0.791c-0.196,0.017-0.483-0.03-0.613,0.202c-0.358,0.056-0.321-0.354-0.652-0.388 c-0.121,0.067-0.057,0.193-0.069,0.308c-0.147,0.208-0.36-0.006-0.541-0.03c-0.148,0.053-0.267,0.222-0.176,0.347 c-0.162,0.105-0.342,0.173-0.536,0.188c-0.216-0.33-0.584,0.021-0.798-0.167c-0.111-0.292,0.304-0.478,0.42-0.722 c-0.137-0.165-0.394-0.148-0.575-0.234c-0.25,0.273-0.647-0.029-0.867,0.294c-0.252,0.042-0.482-0.159-0.683-0.336 c0-0.063-0.032-0.153,0.027-0.204c0.192-0.171,0.333,0.11,0.468,0.17c0.089-0.064,0.133-0.143,0.102-0.244 c0.266-0.195,0.439-0.543,0.833-0.319c0.103-0.167,0.326-0.197,0.461-0.223c-0.018-0.064,0.027-0.142-0.048-0.179 c0.114-0.245-0.187-0.241-0.324-0.404c0.269-0.771-0.735-0.654-1.148-0.993c-0.154-0.215,0.128-0.373,0.109-0.579 c-0.429-0.376-0.499-0.899-0.719-1.344l0.21-0.003c0.219,0.508,0.808,0.552,1.178,0.993c0.361,0.033,0.369-0.312,0.501-0.494 c0.614-0.047,0,0.768,0.512,0.851c0.306,0.212,0.448-0.161,0.767,0.014c0.146-0.22-0.235-0.457-0.061-0.728l0.151-0.004 c0.119,0.025,0.168,0.126,0.185,0.216c0.11,0.267,0.473,0.364,0.757,0.257c-0.082,0.462,0.464,0.671,0.53,1.066 c0.18-0.066,0.456,0.147,0.615-0.073c0.452-0.044,0.46,0.403,0.629,0.604c0.139,0.166,0.5,0.16,0.429,0.43 c0.123,0.137,0.291,0.161,0.484,0.146c0.219,0.392,0.775,0.449,1.196,0.443c-0.034-0.18-0.318-0.136-0.411-0.276 c0.073-0.116,0.405-0.006,0.356-0.21c-0.195-0.048-0.466-0.044-0.675,0.009c-0.214-0.138-0.324-0.34-0.477-0.516l0.383-0.376 c-0.079-0.141-0.157-0.331-0.085-0.485c-0.153-0.151-0.321-0.276-0.548-0.3c-0.118,0.054-0.04,0.27-0.25,0.209 c-0.336-0.276-0.898-0.575-0.952-1.021c0.428-0.314-0.203-0.395-0.27-0.61c0.134-0.104,0.312-0.222,0.509-0.136 c0.077,0.152,0.262,0.278,0.296,0.456c0.137,0.152,0.346,0.008,0.432-0.096c-0.625-0.54-1.561-0.718-1.982-1.441 c0.354-0.325,0.321,0.29,0.655,0.323c0.434-0.008,0.958-0.001,1.266,0.352c0.343-0.171,0.548,0.312,0.874,0.052 c0.199,0.137,0.156,0.367,0.266,0.546c0.179-0.042,0.221-0.286,0.383-0.404c0.72-0.124-0.051,0.487,0.301,0.764 c0.421,0.019,0.067-0.436,0.472-0.531c-0.067-0.256-0.282-0.482-0.554-0.542c-0.347-0.072-0.462-0.596-0.849-0.385 c-0.164,0.118-0.419,0.058-0.572-0.056c-0.169-0.151,0.159-0.218,0.097-0.371c-0.351-0.212-0.612-0.516-0.918-0.781l-0.356,0.249 c-0.256-0.148-0.084-0.51-0.298-0.699c-0.123-0.114-0.209,0.092-0.332,0.03c-0.644,0.035-0.34-0.494-0.794-0.691 c-0.079-0.204,0.189-0.298,0.231-0.464c0.039-0.283-0.5-0.185-0.61-0.425c-0.201-0.216,0.205-0.195,0.278-0.376 c0.039-0.308-0.379-0.187-0.547-0.298c-0.153-0.125-0.261-0.278-0.341-0.456l0.465-0.058c0.012-0.218-0.292-0.329-0.328-0.52 c0.037-0.5,0.366,0.224,0.725,0.079c0.17,0.318,0.536,0.504,0.692,0.782c0.108,0.255,0.271,0.061,0.48,0.058 c0.202,0.253,0.477,0.453,0.588,0.759c0.393,0.16-0.021-0.256,0.202-0.374c0.252-0.144,0.378,0.108,0.367,0.276 c0.189,0.458,0.479-0.098,0.764-0.039c0.151,0.023,0.306,0.163,0.293,0.303c0.124,0.894,1.194,0.482,1.844,0.612 c0.376,0.045,0.548,0.363,0.851,0.513c0.417-0.275-0.28-0.508-0.197-0.83c-0.125-0.305-0.41-0.25-0.694-0.167 c-0.061-0.076-0.198-0.112-0.155-0.215c0.24-0.771-0.783-0.167-1.12-0.381c-0.17-0.317,0.386-0.223,0.245-0.565 c-0.306-0.252-0.402,0.223-0.718,0.202c-0.545-0.195,0.304-0.503-0.059-0.703c-0.27,0.12-0.443,0.43-0.82,0.346 c-0.578-0.35,0.355-0.249,0.424-0.557c-0.158-0.306-0.465,0.057-0.691-0.054c-0.104-0.523-0.799-0.09-0.972-0.511 c0.1-0.142,0.369-0.236,0.413-0.403c0.022-0.345-0.426-0.21-0.653-0.322c-0.156-0.267,0.353-0.325,0.499-0.533 c0.128-0.346-0.301-0.034-0.413-0.3c0.114-0.322-0.324-0.457-0.301-0.802c0.058-0.09,0.178-0.093,0.284-0.094 c0.629-0.073,0.326,0.571,0.734,0.666c0.011,0.501,0.665,0.132,0.881,0.448c0.136,0.101,0.02,0.28,0.262,0.278 c0.085-0.104,0.162-0.208,0.126-0.349c0.118-0.179,0.377,0.059,0.544,0.122c0.137,0.151,0.125,0.368,0.188,0.546 c0.593,0.989,1.907,0.56,2.898,0.597c0.169,0.177,0.414,0.377,0.669,0.451c0.409,0.135,0.462,0.518,0.693,0.757 M38.999,35.121 c0.018,0.087,0.095,0.227,0.214,0.123c0.041-0.141,0.492-0.199,0.171-0.347C39.219,34.924,39.07,34.979,38.999,35.121z M38.057,36.86c-0.06,0.014-0.103,0.078-0.179,0.054c-0.059-0.038-0.075-0.088-0.078-0.153 C37.874,36.646,38.116,36.718,38.057,36.86z M40.418,39.18c0.049,0.19,0.242,0.021,0.394,0.058l0.101-0.091 C40.835,38.93,40.477,39.025,40.418,39.18z M41.487,40.737l0.006,0.333l-0.104,0.001c-0.091-0.024-0.124-0.114-0.109-0.215 C41.292,40.765,41.366,40.714,41.487,40.737z M42.274,45.446l-0.107,0.001c-0.089-0.05-0.166-0.138-0.076-0.203 C42.211,45.242,42.318,45.343,42.274,45.446z M41.832,46.565c-0.028,0.103,0.05,0.192,0.14,0.216 c0.092-0.002,0.21-0.004,0.223-0.107c-0.001-0.089,0.011-0.217-0.126-0.266C41.933,46.359,41.876,46.501,41.832,46.565z M29.65,50.214c-0.044,0.089,0.046,0.126,0.108,0.176l0.18-0.053C29.919,50.235,29.75,50.045,29.65,50.214z M41.228,50.783 c-0.058,0.116,0.107,0.164,0.182,0.176c0.12-0.026,0.285-0.105,0.176-0.22C41.51,50.637,41.271,50.667,41.228,50.783z M28.995,52.04c0.02,0.153,0.231,0.163,0.366,0.198c0.208-0.142,0.068-0.359,0.019-0.512C29.231,51.779,29.052,51.911,28.995,52.04 z M46.281,52.549l0.065,0.242c0.242,0.074,0.447-0.134,0.58-0.29c-0.094-0.152-0.099-0.421-0.368-0.416L46.281,52.549z M44.866,52.467c-0.025,0.18,0.142,0.255,0.293,0.303c0.283-0.054,0.535-0.212,0.819-0.28c-0.093-0.19-0.51-0.004-0.725-0.143 C45.105,52.337,44.956,52.338,44.866,52.467z M29.165,58.818c0.046,0.062,0.121,0.062,0.182,0.022l0.072-0.053l-0.108-0.126 C29.282,58.751,29.118,58.716,29.165,58.818z M47.201,71.072c0.048,0.167,0.067,0.293-0.144,0.374 c-0.118,0.027-0.209,0.093-0.326,0.158c-0.413-0.35-0.992-0.023-1.404-0.375c-0.178,0.183-0.203,0.413-0.503,0.495 c-0.282,0.041-0.601-0.068-0.826,0.011c0.127,0.268,0.621,0.221,0.808,0.487c0.002,0.128-0.055,0.282-0.219,0.337 c-0.335-0.239-0.874-0.143-1.194-0.38c-0.595,0.368-0.778-0.525-1.374-0.35c-0.104,0.091-0.253,0.207-0.144,0.333 c0.198,0.114,0.614-0.11,0.771,0.181c0.017,0.179-0.1,0.347-0.278,0.426c-0.137-0.049-0.221,0.181-0.33,0.005l-0.749,0.113 c-0.089,0.104,0.063,0.229,0.186,0.267c0.739,0.143,1.156-0.747,1.902-0.272c0.162-0.105-0.053-0.332,0.203-0.4 c0.344-0.095,0.542,0.146,0.801,0.231c0.347,0.071,0.756,0.231,1.113,0.073c-0.053-0.382,0.744-0.28,0.419-0.708 c0.221-0.235,0.607,0.234,0.688-0.19c0.074-0.028,0.12-0.079,0.177-0.13c0.23,0.136,0.325,0.403,0.655,0.296 c0.105,0.062,0.242,0.124,0.36,0.059l-0.043-0.587c-0.118,0.092-0.346-0.009-0.408-0.148 C47.282,71.237,47.486,71.042,47.201,71.072z M50.589,78.02c-0.089,0.104-0.011,0.23,0.064,0.307 c0.138,0.035,0.378,0.044,0.436-0.096l-0.002-0.089C50.965,78.053,50.754,78.055,50.589,78.02z M19.401,80.12 c0.092,0.064,0.227,0.126,0.332,0.047c0.074-0.065-0.003-0.191-0.08-0.202C19.533,79.927,19.37,80.02,19.401,80.12z M48.96,79.95 c0.05,0.178,0.247,0.329,0.117,0.522c-0.31,0.286-0.516-0.235-0.861-0.205c0.124,0.19,0.247,0.379,0.148,0.65 c0.137,0.063,0.152,0.165,0.186,0.266c-0.193,0.055-0.339,0.35-0.598,0.201c-0.426-0.25-0.047-0.844-0.709-0.911 c-0.641,0.278-0.436-0.71-1.058-0.267c-0.268,0.057,0.249,0.343-0.126,0.438c-0.255,0.042-0.467-0.058-0.619-0.145 c-0.011,0.167-0.008,0.333,0.189,0.42c0.374-0.032,0.339,0.454,0.728,0.385c-0.003-0.154-0.336-0.34-0.008-0.461 c0.39,0.034,0.651,0.35,0.838,0.602c0.482,0.045,1.101,0.215,1.515-0.073c-0.055-0.498,0.726-0.472,0.671-0.969 c-0.065-0.179-0.234-0.419-0.011-0.575c0.282-0.108,0.378,0.184,0.472,0.324c-0.277,0.337,0.191,0.483,0.122,0.83 c0.214,0.24,0.402-0.173,0.645-0.047c0.069-0.245,0.124-0.54,0.453-0.647l0.438,0.171c0.132-0.154,0.19-0.321,0.214-0.514 c-0.165-0.035-0.302-0.085-0.48-0.056c-0.261,0.49-0.737-0.002-1.08,0.08C49.828,79.745,49.098,79.333,48.96,79.95z M49.073,85.384 c-0.061,0.079-0.028,0.181-0.026,0.283c0.091,0.05,0.241,0.01,0.362,0.021c0.267-0.094,0.157-0.36,0.125-0.527 C49.355,85.215,49.128,85.18,49.073,85.384z M23.886,89.354c0.123,0.127,0.302,0.01,0.436-0.044 c0.086-0.129,0.237-0.132,0.359-0.057c0.347,0.123,0.369,0.442,0.479,0.695c0.215,0.189,0.434-0.12,0.675-0.137 c0.239,0.022,0.477-0.059,0.535-0.251c-0.005-0.206-0.115-0.381-0.296-0.481c-0.267,0.132-0.302,0.632-0.665,0.521 c-0.409-0.108-0.099-0.484-0.523-0.567C24.45,88.987,24.138,89.082,23.886,89.354z M21.514,91.539 c0.104-0.002-0.056,0.27,0.184,0.214c0.116-0.167,0.186-0.386,0.169-0.616C21.658,91.191,21.569,91.346,21.514,91.539z M33.884,93.376l0.049,0.92c0.181,0.048,0.225-0.08,0.327-0.12c-0.008-0.436,0.115-0.987,0.002-1.42 C34.008,92.874,34.03,93.183,33.884,93.376z M37.041,92.869c-0.009,0.192,0.114,0.356,0.34,0.366 c0.239-0.016,0.51-0.021,0.605,0.209c0.093,0.189-0.146,0.257-0.202,0.399c-0.273-0.046-0.514-0.145-0.756-0.232 c0.093,0.115-0.082,0.36,0.188,0.395c0.64-0.342,0.97,0.421,1.585,0.309c0.404-0.018,0.211-0.604,0.681-0.407 c0.049,0.128,0.187,0.266,0.294,0.342c0.461-0.11,1.054,0.137,1.517,0.027c0.241-0.004,0.531,0.273,0.72-0.01 c0.075-0.066,0.208-0.157,0.1-0.246c-0.437-0.184-1.089,0.285-1.52-0.13c-0.14-0.267-0.163-0.599-0.406-0.788 c-0.13,0.193,0.008,0.41-0.32,0.53c-0.284,0.055-0.552-0.594-0.648-0.093c-0.208,0.067-0.421-0.083-0.62-0.169 c-0.184-0.279-0.679-0.208-0.865-0.538C37.524,92.888,37.269,92.866,37.041,92.869z M30.017,94.572l0.066,0.243 c0.286,0.072,0.479-0.083,0.428-0.313c0.015-0.078-0.002-0.178-0.108-0.178C30.161,94.251,30.061,94.431,30.017,94.572z M32.012,95.131c0.063,0.127,0.227,0.074,0.363,0.084c0.132-0.168,0.321-0.44,0.091-0.616 C32.09,94.567,32.174,94.949,32.012,95.131z M48.229,94.761c-0.044,0.103,0.049,0.192,0.139,0.216 c0.105-0.04,0.209-0.042,0.283-0.133c-0.017-0.113-0.108-0.151-0.215-0.213C48.347,94.645,48.241,94.672,48.229,94.761z"></path> </g> <g id="type"> <g> <path fill="#52632D" d="M257.793,115H243.2l-28.417-40.834h-4.992V115h-12.033V18.483h14.593c8.577,0,17.793,0.128,25.473,4.48 c8.064,4.736,12.673,13.824,12.673,23.041c0,13.824-9.217,25.345-23.169,27.009L257.793,115z M209.791,64.182h3.84 c12.289,0,25.601-2.304,25.601-17.665c0-15.104-14.337-17.28-26.241-17.28h-3.2V64.182z"></path> <path fill="#52632D" d="M267.774,86.967c0.128,10.24,7.04,19.841,18.049,19.841c8.832,0,13.568-4.48,17.921-11.648l9.729,5.504 c-5.632,10.369-16.129,16.385-27.777,16.385c-18.305,0-29.441-13.824-29.441-31.489c0-18.433,9.856-32.258,29.186-32.258 c19.072,0,28.033,14.081,28.033,31.874v1.792H267.774z M301.952,78.263c-1.408-8.961-7.297-14.978-16.513-14.978 c-8.961,0-15.617,6.4-17.025,14.978H301.952z"></path> <path fill="#52632D" d="M370.559,105.655h-0.256c-4.608,6.784-11.904,11.393-20.353,11.393c-18.434,0-28.674-15.232-28.674-32.386 c0-16.385,10.881-31.361,28.161-31.361c8.961,0,16.129,4.608,20.865,11.777h0.256V3.891h11.521V115h-11.521V105.655z M371.2,85.047c0-11.648-7.041-21.505-19.457-21.505c-11.905,0-18.945,10.368-18.945,21.505c0,11.265,6.784,21.761,18.945,21.761 C364.287,106.808,371.2,96.823,371.2,85.047z"></path> <path fill="#005A7A" d="M487.678,36.916c-6.913-6.144-16.385-9.472-25.474-9.472c-21.633,0-38.146,18.049-38.146,39.426 c0,21.121,16.385,39.17,37.89,39.17c9.473,0,18.561-3.585,25.729-9.985v14.209c-7.425,4.353-16.897,6.784-25.346,6.784 c-27.521,0-50.307-21.889-50.307-49.794c0-28.546,22.913-50.818,51.331-50.818c8.448,0,17.024,2.048,24.321,6.528V36.916z"></path> <path fill="#005A7A" d="M507.642,86.967c0.128,10.24,7.04,19.841,18.049,19.841c8.832,0,13.568-4.48,17.921-11.648l9.729,5.504 c-5.632,10.369-16.129,16.385-27.777,16.385c-18.305,0-29.441-13.824-29.441-31.489c0-18.433,9.856-32.258,29.186-32.258 c19.072,0,28.033,14.081,28.033,31.874v1.792H507.642z M541.82,78.263c-1.408-8.961-7.297-14.978-16.513-14.978 c-8.961,0-15.617,6.4-17.025,14.978H541.82z"></path> <path fill="#005A7A" d="M610.427,105.655h-0.256c-4.608,6.784-11.904,11.393-20.353,11.393c-18.434,0-28.674-15.232-28.674-32.386 c0-16.385,10.881-31.361,28.161-31.361c8.961,0,16.129,4.608,20.865,11.777h0.256V3.891h11.521V115h-11.521V105.655z M611.067,85.047c0-11.648-7.04-21.505-19.456-21.505c-11.905,0-18.945,10.368-18.945,21.505c0,11.265,6.784,21.761,18.945,21.761 C604.155,106.808,611.067,96.823,611.067,85.047z"></path> <path fill="#005A7A" d="M693.116,115h-11.521v-9.345h-0.256c-4.608,6.784-11.776,11.393-20.353,11.393 c-18.306,0-28.674-15.232-28.674-32.386c0-16.385,10.881-31.361,28.289-31.361c8.833,0,16.001,4.608,20.737,11.777h0.256v-9.985 h11.521V115z M682.235,85.047c0-11.648-7.04-21.505-19.456-21.505c-11.905,0-18.945,10.368-18.945,21.505 c0,11.265,6.784,21.761,18.945,21.761C675.323,106.808,682.235,96.823,682.235,85.047z"></path> <path fill="#005A7A" d="M720.377,64.821h0.385c2.815-7.04,8.704-11.521,16.385-11.521c3.328,0,6.656,1.152,9.472,2.944 l-5.248,10.497c-2.048-1.793-4.353-2.433-7.04-2.433c-12.417,0-13.953,11.521-13.953,21.249V115h-11.521V55.093h11.521V64.821z"></path> </g> <g> <path fill="#52632D" d="M414.704,154.6h-5.94v-30.465h5.94V154.6z"></path> <path fill="#52632D" d="M424.964,136.58h0.081c1.172-1.778,3.151-2.465,5.172-2.465c5.334,0,6.869,3.758,6.869,8.364V154.6h-5.657 v-10.505c0-2.384,0.122-5.454-3.07-5.454c-3.354,0-3.395,3.758-3.395,6.142v9.818h-5.656v-19.838h5.656V136.58z"></path> <path fill="#52632D" d="M451.75,139.448c-0.809-0.768-1.859-1.373-2.99-1.373c-0.93,0-1.858,0.727-1.858,1.696 c0,1.455,2.061,1.859,4.081,2.748c2.061,0.889,4.08,2.263,4.08,5.697c0,4.405-3.555,7.03-7.717,7.03 c-2.667,0-5.253-1.211-6.99-3.313l2.586-3.354c1.091,1.212,2.545,2.303,4.202,2.303c1.253,0,2.263-0.848,2.263-2.141 c0-1.737-1.98-2.142-3.96-2.99s-3.96-2.021-3.96-5.212c0-3.718,2.586-6.425,6.304-6.425c2.101,0,4.768,0.646,6.384,2.061 L451.75,139.448z"></path> <path fill="#52632D" d="M464.112,134.761v10.748c0,2.263,0.363,4.969,3.232,4.969c2.868,0,3.232-2.707,3.232-4.969v-10.748h5.656 v11.677c0,5.779-2.99,8.808-8.889,8.808c-5.899,0-8.89-3.029-8.89-8.808v-11.677H464.112z"></path> <path fill="#52632D" d="M486.291,136.822h0.081c1.132-1.737,2.828-2.707,4.93-2.707c0.808,0,1.616,0.202,2.343,0.484l-0.687,5.253 c-0.687-0.484-1.495-0.728-2.344-0.728c-3.919,0-4.323,3.476-4.323,6.546v8.929h-5.656v-19.838h5.656V136.822z"></path> <path fill="#52632D" d="M514.653,154.6h-5.576v-1.818h-0.081c-1.212,1.576-3.313,2.465-5.374,2.465 c-5.818,0-9.131-5.292-9.131-10.667c0-5.253,3.354-10.465,9.051-10.465c2.061,0,4.161,0.889,5.535,2.505v-1.858h5.576V154.6z M509.642,144.661c0-2.667-1.818-5.536-4.728-5.536s-4.687,2.869-4.687,5.536c0,2.666,1.777,5.576,4.687,5.576 S509.642,147.327,509.642,144.661z"></path> <path fill="#52632D" d="M524.831,136.58h0.081c1.172-1.778,3.151-2.465,5.172-2.465c5.334,0,6.869,3.758,6.869,8.364V154.6h-5.657 v-10.505c0-2.384,0.121-5.454-3.07-5.454c-3.354,0-3.395,3.758-3.395,6.142v9.818h-5.656v-19.838h5.656V136.58z"></path> <path fill="#52632D" d="M554.929,140.822c-1.212-1.212-2.424-1.939-4.162-1.939c-3.191,0-5.01,2.99-5.01,5.899 c0,3.111,1.979,5.697,5.212,5.697c1.536,0,2.95-0.767,3.96-1.899v5.456c-1.535,0.848-3.151,1.211-4.889,1.211 c-5.859,0-10.021-4.809-10.021-10.505c0-5.898,4.323-10.626,10.303-10.626c1.576,0,3.232,0.404,4.606,1.253V140.822z"></path> <path fill="#52632D" d="M563.453,145.589c0,2.506,0.97,5.334,3.92,5.334c1.858,0,3.03-1.132,3.798-2.708l5.212,0.849 c-1.374,3.958-4.849,6.181-9.01,6.181c-6.143,0-9.899-4.363-9.899-10.383c0-6.021,3.191-10.748,9.616-10.748 c6.505,0,9.414,4.808,9.414,10.788v0.687H563.453z M571.17,142.075c-0.283-2.021-1.576-4-3.758-4c-2.263,0-3.516,1.939-3.798,4 H571.17z"></path> <path fill="#52632D" d="M598.075,148.175l-2.505,6.424h-6.263l11.879-31.273h4.606l11.556,31.273h-6.344l-2.344-6.424H598.075z M603.207,132.256h-0.081l-3.354,11.07h7.232L603.207,132.256z"></path> <path fill="#52632D" d="M638.113,153.389c0,6.465-2.182,11.797-9.616,11.797c-4.849,0-9.738-2.949-10.021-8.242h5.979 c0.283,2.102,1.778,3.475,3.92,3.475c4,0,4.081-3.516,4.081-6.504v-1.293h-0.081c-1.212,1.615-3.313,2.625-5.415,2.625 c-5.818,0-8.929-5.09-8.929-10.424c0-5.454,3.313-10.707,9.212-10.707c1.98,0,4,1.01,5.132,2.546h0.081v-1.899h5.656V153.389z M633.143,144.701c0-2.667-1.778-5.576-4.688-5.576s-4.687,2.909-4.687,5.576s1.777,5.536,4.687,5.536 S633.143,147.368,633.143,144.701z"></path> <path fill="#52632D" d="M647.161,145.589c0,2.506,0.97,5.334,3.919,5.334c1.859,0,3.031-1.132,3.799-2.708l5.212,0.849 c-1.374,3.958-4.849,6.181-9.011,6.181c-6.141,0-9.898-4.363-9.898-10.383c0-6.021,3.191-10.748,9.616-10.748 c6.505,0,9.414,4.808,9.414,10.788v0.687H647.161z M654.878,142.075c-0.283-2.021-1.576-4-3.758-4c-2.263,0-3.516,1.939-3.798,4 H654.878z"></path> <path fill="#52632D" d="M668.936,136.58h0.081c1.172-1.778,3.151-2.465,5.172-2.465c5.334,0,6.869,3.758,6.869,8.364V154.6h-5.657 v-10.505c0-2.384,0.121-5.454-3.07-5.454c-3.354,0-3.395,3.758-3.395,6.142v9.818h-5.656v-19.838h5.656V136.58z"></path> <path fill="#52632D" d="M699.035,140.822c-1.212-1.212-2.424-1.939-4.162-1.939c-3.191,0-5.01,2.99-5.01,5.899 c0,3.111,1.979,5.697,5.212,5.697c1.536,0,2.95-0.767,3.96-1.899v5.456c-1.535,0.848-3.151,1.211-4.889,1.211 c-5.859,0-10.021-4.809-10.021-10.505c0-5.898,4.323-10.626,10.303-10.626c1.576,0,3.232,0.404,4.606,1.253V140.822z"></path> <path fill="#52632D" d="M700.244,134.761h6.425l4.728,11.272l5.091-11.272h6.304l-14.425,30.424h-6.223l6.546-13.615 L700.244,134.761z"></path> </g> </g> <g id="stream"> <g> <g> <path fill="#FFFFFF" d="M164.951,136.919c-22.108-4.619-55.479-12.736-55.345-19.626c0.208-10.749,60.923-10.973,60.901-22.113 C170.475,78.447,42.993,72.636,5.542,59.687c-0.556,1.55-1.072,3.122-1.548,4.712c22.121,9.688,104.49,21.12,104.077,30.233 c-0.384,8.47-65.234,5.115-65.234,22.332c0,18.396,66.605,30.096,80.235,56.179c0.377,0.721,0.733,1.389,1.08,2.032 C141.393,167.226,155.701,153.742,164.951,136.919z"></path> </g> </g> </g> </svg> 